<svg xmlns="http://www.w3.org/2000/svg" viewBox="0 0 2223 328">
  <path fill="#000" fill-rule="evenodd" d="M51,8 L8,43 L8,318 L51,318 Z
    M1545,29 L1545,282 L1579,318 L1839,318 L1839,66 L1803,29 Z
    M1896,29 L1896,137 L1950,191 L1953,192 L1960,192 L1961,191 L2004,191 L2005,192 L2042,192 L2043,191 L2052,191 L2053,192 L2057,191 L2125,192 L2126,191 L2139,191 L2140,192 L2153,192 L2170,209 L2170,280 L2169,281 L1941,281 L1908,312 L1902,319 L1903,318 L1905,319 L1913,319 L1914,318 L2214,318 L2214,209 L2160,155 L1957,155 L1939,137 L1939,68 L1940,67 L2172,67 L2213,29 Z
    M1588,67 L1795,67 L1796,68 L1796,280 L1795,281 L1588,281 L1587,280 L1587,68 Z
    M145,118 L145,275 L187,318 L417,318 L380,281 L200,281 L187,267 L187,236 L188,235 L404,235 L457,184 L457,169 L405,118 Z
    M538,118 L538,154 L751,154 L752,155 L752,198 L751,199 L549,199 L547,200 L492,251 L492,268 L541,318 L543,319 L544,318 L794,318 L794,153 L760,118 Z
    M1104,118 L911,118 L896,132 L859,162 L859,318 L902,318 L902,170 L919,154 L1066,154 Z
    M1153,118 L1153,318 L1196,318 L1196,155 L1197,154 L1389,154 L1408,172 L1408,318 L1451,318 L1451,169 L1397,118 Z
    M187,156 L189,154 L395,154 L414,173 L414,182 L395,199 L188,199 L187,198 Z
    M535,256 L557,235 L751,235 L752,236 L752,280 L751,281 L551,281 L535,265 Z"/>
</svg>
